<svg fill="none" height="32" viewBox="0 0 32 32" width="32" xmlns="http://www.w3.org/2000/svg"><g fill="#5e6b7e"><path d="m6.48572 5.35066c-2.38715 1.49197-3.57663 3.36689-3.57663 5.19484 0 1.8279.40737 2.9876 4.36364 5.4545 2.90907 1.5083 14.72897 5.8452 14.72897 5.8452.8391.2205 2.3475.7865 3.1116 1.0941.6877.3109 1.3374.657 1.9428 1.0354 2.8773 1.7983 4.9439 4.4688 4.9439 7.6617 0 .1219-.003.2432-.009.3636h-2.9157c.0104-.1213.0156-.2426.0156-.3636 0-1.8279-1.1895-3.7029-3.5766-5.1948-.8367-.523-1.7976-.9813-2.8576-1.3554 0 0-14.66802-5.0679-17.56579-6.8791-3.94705-2.4669-5.09091-4.4688-5.09091-7.6616 0-3.19291 2.06663-5.86345 4.9439-7.66174 2.89777-1.81111 6.8105-2.88376 11.0561-2.88376s8.1583 1.07265 11.0561 2.88376c2.8773 1.79829 4.9439 4.46883 4.9439 7.66174 0 3.1928-2.0666 5.8634-4.9439 7.6616-.5652.3533-1.169.6784-1.8063.973l-3.9318-1.6718c1.5979-.4252 3.0198-1.0328 4.1963-1.7681 2.3871-1.4919 3.5766-3.3668 3.5766-5.1947 0-1.82795-1.1895-3.70287-3.5766-5.19484-2.3667-1.47915-5.7267-2.44157-9.5143-2.44157s-7.14763.96242-9.51428 2.44157z"/><path d="m6.48572 26.4416c-2.38715 1.4919-3.57663 3.3669-3.57663 5.1948 0 .121.00522.2423.01565.3636h-2.91576084c-.00596276-.1204-.00897916-.2417-.00897916-.3636 0-3.1929 2.06663-5.8634 4.9439-7.6617.644-.4025 1.33814-.7686 2.07491-1.0945l4.16679 1.6668c-1.8034.4268-3.4012 1.0829-4.69988 1.8946z"/><path d="m22.5455 31.6364c0 .1234-.0226.2448-.0663.3636h-12.95837c-.04368-.1188-.06628-.2402-.06628-.3636 0-1.4059 2.93045-2.5455 6.54545-2.5455s6.5455 1.1396 6.5455 2.5455z"/><path d="m16 12.3636c3.615 0 6.5455-1.1396 6.5455-2.54542 0-1.40581-2.9305-2.54545-6.5455-2.54545s-6.54545 1.13964-6.54545 2.54545c0 1.40582 2.93045 2.54542 6.54545 2.54542z"/></g></svg>