<svg fill="none" height="32" viewBox="0 0 32 32" width="32" xmlns="http://www.w3.org/2000/svg"><g fill="#5e6b7e"><path clip-rule="evenodd" d="m22.3833 8c-.5553 2.4471-2.4817 4.3734-4.9288 4.9287v6.1426c2.4471.5553 4.3735 2.4816 4.9288 4.9287h9.0167c.3314 0 .6.2686.6.6v1.7091c0 .3314-.2686.6-.6.6h-9.0167c-.6615 2.9149-3.2683 5.0909-6.3833 5.0909s-5.7218-2.176-6.38326-5.0909h-9.016739c-.331371 0-.600001-.2686-.600001-.6v-1.7091c0-.3314.268629-.6.6-.6h9.01674c.55526-2.4471 2.48166-4.3734 4.92876-4.9287v-6.1426c-2.4471-.5553-4.3735-2.4816-4.92876-4.9287h-9.01674c-.331371 0-.6-.26863-.6-.6v-1.70909c0-.33137.26863-.6.600001-.6h9.016739c.66146-2.91489 3.26826-5.09091 6.38326-5.09091s5.7218 2.17602 6.3833 5.09091h9.0167c.3314 0 .6.26863.6.6v1.70909c0 .33137-.2686.6-.6.6zm-6.3833 2.1818c2.0083 0 3.6364-1.62804 3.6364-3.63635 0-2.0083-1.6281-3.63636-3.6364-3.63636s-3.6364 1.62806-3.6364 3.63636c0 2.00831 1.6281 3.63635 3.6364 3.63635zm0 18.9091c2.0083 0 3.6364-1.628 3.6364-3.6364 0-2.0083-1.6281-3.6363-3.6364-3.6363s-3.6364 1.628-3.6364 3.6363c0 2.0084 1.6281 3.6364 3.6364 3.6364z" fill-rule="evenodd"/><path d="m22.5455 15.1455c0-.3314.2686-.6.6-.6h8.2545c.3314 0 .6.2686.6.6v1.709c0 .3314-.2686.6-.6.6h-8.2545c-.3314 0-.6-.2686-.6-.6z"/><path d="m9.45455 15.1455c0-.3314-.26863-.6-.6-.6h-8.25455c-.331371 0-.6.2686-.6.6v1.709c0 .3314.268629.6.599999.6h8.254551c.33137 0 .6-.2686.6-.6z"/></g></svg>