<svg fill="none" height="32" viewBox="0 0 32 32" width="32" xmlns="http://www.w3.org/2000/svg"><g fill="#5e6b7e"><path clip-rule="evenodd" d="m21.0909.826973c6.3407 2.126547 10.9091 8.116297 10.9091 15.173027 0 7.0568-4.5684 13.0465-10.9091 15.1731l-2.3997.6821c-.2554.0726-.5094-.1192-.5094-.3847v-10.4307c-.8558.4951-1.8493.7784-2.9091.7784-3.2133 0-5.81815-2.6049-5.81815-5.8182s2.60485-5.8182 5.81815-5.8182c1.0598 0 2.0533.2833 2.9091.7784v-10.430643c0-.26553.254-.4573616.5094-.384756zm0 27.237227c4.701-1.9862 8-6.6399 8-12.0642 0-5.4242-3.299-10.0779-8-12.0641zm-2.9091-12.0662c-.0011-1.6057-1.3031-2.9071-2.9091-2.9071-1.6066 0-2.9091 1.3025-2.9091 2.9091s1.3025 2.9091 2.9091 2.9091c1.606 0 2.908-1.3014 2.9091-2.9071z" fill-rule="evenodd"/><path d="m12.6195 31.6422c.2443.0526.4714-.1363.4714-.3862v-2.17c0-.1869-.1299-.3482-.311-.3941-5.67287-1.4348-9.87081-6.5731-9.87081-12.6919 0-6.11875 4.19794-11.25705 9.87081-12.69189.1811-.04581.311-.20719.311-.394v-2.170093c0-.249855-.2271-.438736-.4714-.386197-7.21305 1.55143-12.6195 7.96545-12.6195 15.64218 0 7.6768 5.40645 14.0908 12.6195 15.6422z"/></g></svg>