<svg fill="none" height="32" viewBox="0 0 32 32" width="32" xmlns="http://www.w3.org/2000/svg"><g fill="#5e6b7e"><path d="m6.39455.585786c.37507-.375072.88378-.585786 1.41421-.585786h2.31994c.3564 0 .5349.430857.2829.682843l-9.728757 9.728757c-.251986.252-.68284235.0735-.68284234-.2829l.00000011-2.31994c.00000002-.53043.21071423-1.03914.58578723-1.41421z"/><path d="m.585786 25.9156c-.375072-.375-.58578599-.8837-.58578596-1.4142l.0000001-2.3199c.00000001-.3564.43085686-.5349.68284286-.2829l9.418557 9.4186c.252.2519.0735.6828-.28287.6828h-2.31996c-.53044 0-1.03914-.2107-1.41422-.5858z"/><path d="m26.2258 31.4142c-.3751.3751-.8838.5858-1.4143.5858h-2.3199c-.3564 0-.5349-.4309-.2829-.6828l9.1085-9.1085c.2519-.252.6828-.0735.6828.2829v2.3199c0 .5305-.2107 1.0392-.5858 1.4143z"/><path d="m32 7.49866c0-.53043-.2107-1.03914-.5858-1.41421l-5.4986-5.498663c-.3751-.375073-.8838-.585787-1.4143-.585787h-2.3199c-.3564 0-.5349.430857-.2829.682843l9.4187 9.418657c.2519.2519.6828.0735.6828-.28288z"/><path d="m18.9091 23.7654c0 .3563.4308.5348.6828.2828l7.2126-7.2125c.3905-.3906.3905-1.0237 0-1.4143l-7.2126-7.21253c-.252-.25198-.6828-.07352-.6828.28285v2.31998c0 .5304.2107 1.0391.5858 1.4142l3.1955 3.1955c.3905.3906.3905 1.0237 0 1.4143l-3.1955 3.1955c-.3751.3751-.5858.8838-.5858 1.4142z"/><path d="m13.0909 11.1218c0 .5305-.2107 1.0392-.5858 1.4142l-2.8854 2.8854c-.39052.3906-.39052 1.0237 0 1.4143l2.8854 2.8854c.3751.375.5858.8838.5858 1.4142v2.32c0 .3563-.4309.5348-.6828.2828l-6.90248-6.9024c-.39052-.3906-.39052-1.0237.00001-1.4143l6.90237-6.90237c.252-.25199.6829-.07352.6829.28284z"/></g></svg>