<svg fill="none" height="32" viewBox="0 0 32 32" width="32" xmlns="http://www.w3.org/2000/svg"><g fill="#5e6b7e"><path d="m13.3197 3.05027c.2866-.05992.4985-.30852.4985-.60141v-1.990333c0-.242493-.2142-.4295789-.4534-.3897573-1.5196.2529773-2.9668.7210803-4.30974 1.3721203-.2024.09812-.32779.30502-.32779.52996v2.26713c0 .3202.35936.51318.63488.35002 1.20825-.71549 2.54095-1.24161 3.95755-1.53773z"/><path clip-rule="evenodd" d="m4.36364 9.74958c0 .09549-.02302.18948-.06577.27492-.88851 1.7747-1.38878 3.7794-1.38878 5.9014 0 4.4477 2.19772 8.3798 5.56171 10.76-.30473-.8504-.4708-1.7672-.4708-2.723 0-3.9397 2.8216-7.2173 6.5455-7.9045v-7.93487c0-.33137.2686-.6.6-.6h1.709c.3314 0 .6.26863.6.6v7.93487c3.7239.6872 6.5455 3.9648 6.5455 7.9045 0 .9558-.1661 1.8726-.4708 2.723 3.364-2.3802 5.5617-6.3123 5.5617-10.76 0-2.6241-.765-5.0688-2.0832-7.12111-.0636-.09909-.0986-.21404-.0986-.33181v-3.38292c0-.3501.4137-.52656.6551-.273 2.7479 2.88628 4.4358 6.79954 4.4358 11.10884 0 8.8775-7.1634 16.0741-16 16.0741-8.83656 0-16.00000319-7.1966-16.00000241-16.0741.00000034-3.9077 1.38795241-7.48963 3.69560241-10.27551.23117-.27908.66804-.10961.66804.25278zm11.63636 19.32782c2.8116 0 5.0909-2.2898 5.0909-5.1145 0-2.8246-2.2793-5.1144-5.0909-5.1144s-5.0909 2.2898-5.0909 5.1144c0 2.8247 2.2793 5.1145 5.0909 5.1145z" fill-rule="evenodd"/><path d="m22.5455 1.64163c0-.23593-.1379-.45091-.3553-.54262-1.1254-.47477-2.3162-.823998-3.555-1.0302417-.2392-.0398217-.4534.1472687-.4534.3897587v1.990333c0 .29289.2119.54149.4986.60142 1.1472.23981 2.2394.63048 3.2551 1.15043.2745.14055.61-.05358.61-.36201z"/></g></svg>