<svg fill="none" height="32" viewBox="0 0 32 32" width="32" xmlns="http://www.w3.org/2000/svg"><g fill="#5e6b7e"><path clip-rule="evenodd" d="m22.6804 16c0-1.2526-.3447-2.4247-.9445-3.4265l9.8398-9.83985c.2343-.23431.2343-.61421 0-.84853l-1.4608-1.460858c-.2343-.234314-.6142-.234314-.8486 0l-9.8398 9.839838c-1.0019-.59974-2.1739-.94447-3.4265-.94447s-2.4246.34474-3.4265.94447l-9.83984-9.839766c-.23432-.234314-.61421-.234314-.84853 0l-1.460864 1.460866c-.234316.23431-.234316.61421 0 .84853l9.839834 9.83977c-.59976 1.0019-.9445 2.1739-.9445 3.4265s.34473 2.4247.9445 3.4265l-9.839824 9.8398c-.234316.2343-.234316.6142-.000001.8485l1.460865 1.4609c.23432.2343.61422.2343.84853 0l9.83983-9.8398c1.0018.5998 2.1739.9445 3.4265.9445s2.4246-.3447 3.4265-.9445l9.8398 9.8398c.2344.2344.6143.2344.8486 0l1.4608-1.4608c.2343-.2343.2343-.6142 0-.8486l-9.8398-9.8398c.5998-1.0018.9445-2.1739.9445-3.4265zm-6.6804 3.7113c2.0497 0 3.7114-1.6616 3.7114-3.7113s-1.6617-3.7113-3.7114-3.7113-3.7113 1.6616-3.7113 3.7113 1.6616 3.7113 3.7113 3.7113z" fill-rule="evenodd"/><path d="m17.2557 4.86604c.3314 0 .6-.26863.6-.6v-3.25359c0-.331371-.2686-.6-.6-.6h-2.5114c-.3313 0-.6.268628-.6.6v3.25359c0 .33137.2687.6.6.6z"/><path d="m17.2557 27.134c.3314 0 .6.2686.6.6v3.2536c0 .3314-.2686.6-.6.6h-2.5114c-.3313 0-.6-.2686-.6-.6v-3.2536c0-.3314.2687-.6.6-.6z"/><path d="m27.134 14.7444c0-.3314.2687-.6.6-.6h3.2536c.3314 0 .6.2686.6.6v2.5113c0 .3314-.2686.6-.6.6h-3.2536c-.3313 0-.6-.2686-.6-.6z"/><path d="m4.866 14.7444c0-.3314-.26863-.6-.6-.6h-3.25361c-.331372 0-.600001.2686-.600001.6v2.5113c0 .3314.268628.6.600001.6h3.25361c.33137 0 .6-.2686.6-.6z"/></g></svg>