<svg fill="none" height="1585" viewBox="0 0 1578 1585" width="1578" xmlns="http://www.w3.org/2000/svg"><g stroke="#007bff"><path d="m1159.81 480.829.01.01 139.61 154.743c33.03 36.612 43.92 88.111 28.53 134.96l-65.02 198.007v.013l-64.21 198.268c-15.19 46.92-54.35 82.1-102.61 92.2l-203.993 42.69h-.013l-203.814 43.53c-48.222 10.3-98.266-6.02-131.146-42.77l-138.969-155.31-.009-.01-139.604-154.742c-33.031-36.613-43.919-88.112-28.535-134.961l65.021-198.007.005-.013 64.208-198.272c15.192-46.912 54.348-82.091 102.612-92.192l203.99-42.694.013-.003 203.814-43.529c48.222-10.299 98.266 6.021 131.15 42.768z" opacity=".04" stroke-width="6.58471"/><path d="m429.5 1160 128.933 142.9c31.484 34.9 80.346 53.99 126.067 43.1" opacity=".2" stroke-width="6.58471"/><path d="m1318.37 338.374.01.005 221.5 245.519c33.42 37.051 44.44 89.167 28.88 136.577l-103.17 314.165v.01l-101.88 314.58c-15.37 47.47-55 83.07-103.84 93.3l-323.655 67.73-.007.01-323.376 69.06c-48.799 10.42-99.443-6.09-132.717-43.28l-220.491-246.42-.005-.01-221.5003-245.52c-33.42592-37.05-44.44507-89.166-28.87674-136.575l103.16504-314.165.002-.006 101.876-314.585c15.374-47.473 54.998-83.074 103.84-93.296l323.657-67.738.007-.002 323.376-69.0651c48.795-10.4225 99.445 6.0929 132.715 43.2802z" opacity=".04" stroke-width="3.29235"/><path d="m112.498 594 100.926-314.393c15.496-48.271 55.756-84.479 105.394-94.787l324.18-67.32" opacity=".2" stroke-width="3.29235"/></g><circle cx="253.521" cy="903.609" fill="#151515" r="123.316" stroke="#17171a" stroke-width="6.3239"/><circle cx="348.891" cy="532.891" fill="#151515" r="79.0165" stroke="#17171a" stroke-width="6.58471"/><circle cx="1204.55" cy="1123.29" fill="#151515" r="82.0847" stroke="#17171a" stroke-width="6.02456"/><circle cx="1069.71" cy="82.7092" fill="#151515" r="80.2511" stroke="#17171a" stroke-width="4.11544"/></svg>