<svg fill="none" height="1036" viewBox="0 0 1036 1036" width="1036" xmlns="http://www.w3.org/2000/svg"><g stroke-width="4"><path d="m672.696 250.05.008.004 99.737 57.311c34.214 19.66 55.276 56.14 55.195 95.601l-.236 115.03v.008l.236 115.03c.081 39.461-20.981 75.941-55.195 95.601l-99.737 57.311-.008.004-99.501 57.72c-34.133 19.8-76.257 19.8-110.39 0l-99.501-57.72-.008-.004-99.737-57.311c-34.214-19.66-55.276-56.14-55.195-95.601l.236-115.03v-.008l-.236-115.03c-.081-39.461 20.981-75.941 55.195-95.601l99.737-57.311.008-.004 99.501-57.72c34.133-19.8 76.257-19.8 110.39 0z" opacity=".5" stroke="#222325"/><path d="m741.031 131.69.008.004 168.234 96.671c34.214 19.66 55.276 56.14 55.195 95.601l-.398 194.03v.008l.398 194.03c.081 39.461-20.981 75.941-55.195 95.601l-168.234 96.671-.008.004-167.836 97.36c-34.133 19.8-76.257 19.8-110.39 0l-167.836-97.36-.008-.004-168.234-96.671c-34.2138-19.66-55.2759-56.14-55.1949-95.601l.3979-194.03v-.008l-.3979-194.03c-.081-39.461 20.9811-75.941 55.1949-95.601l168.234-96.671.008-.004 167.836-97.3598c34.133-19.8002 76.257-19.8002 110.39 0z" opacity=".15" stroke="#222325"/><path d="m966.07 518 .398 194.03c.082 40.178-21.363 77.322-56.199 97.339l-168.234 96.671" opacity=".15" stroke="#007bff"/></g></svg>