<svg fill="none" height="1585" viewBox="0 0 1578 1585" width="1578" xmlns="http://www.w3.org/2000/svg"><path d="m1159.81 480.829.01.01 139.61 154.743c33.03 36.612 43.92 88.111 28.53 134.96l-65.02 198.007v.013l-64.21 198.268c-15.19 46.92-54.35 82.1-102.61 92.2l-203.993 42.69h-.013l-203.814 43.53c-48.222 10.3-98.266-6.02-131.146-42.77l-138.969-155.31-.009-.01-139.604-154.742c-33.031-36.613-43.919-88.112-28.535-134.961l65.021-198.007.005-.013 64.208-198.272c15.192-46.912 54.348-82.091 102.612-92.192l203.99-42.694.013-.003 203.814-43.529c48.222-10.299 98.266 6.021 131.15 42.768z" opacity=".04" stroke="#007bff" stroke-width="6.58471"/><path d="m429.5 1160 128.933 142.9c31.484 34.9 80.346 53.99 126.067 43.1" opacity=".2" stroke="#007bff" stroke-width="6.58471"/><path d="m1318.38 338.374v.005l221.5 245.519c33.43 37.051 44.45 89.167 28.88 136.577l-103.17 314.165v.01l-101.88 314.58c-15.37 47.47-54.99 83.07-103.84 93.3l-323.653 67.73-.007.01-323.376 69.06c-48.8 10.42-99.443-6.09-132.717-43.28l-220.492-246.42-.004-.01-221.5006-245.52c-33.42591-37.05-44.44506-89.166-28.87673-136.575l103.16533-314.165.002-.006 101.876-314.585c15.373-47.473 54.998-83.074 103.84-93.296l323.657-67.738.006-.002 323.377-69.0651c48.803-10.4225 99.443 6.0929 132.713 43.2802z" opacity=".04" stroke="#007bff" stroke-width="3.29235"/><path d="m112.5 594 100.926-314.393c15.496-48.271 55.756-84.479 105.394-94.787l324.18-67.32" opacity=".2" stroke="#007bff" stroke-width="3.29235"/><g fill="#ffffff" stroke="#17171a"><circle cx="253.522" cy="903.609" r="123.316" stroke-width="2"/><circle cx="348.891" cy="532.891" r="79.0165" stroke-width="2"/><circle cx="1204.55" cy="1123.29" r="82.0847" stroke-width="2"/><circle cx="1069.71" cy="82.7092" r="80.2511" stroke-width="2"/><circle cx="1336.24" cy="646.054" r="133.014" stroke-width="2"/></g><path d="m1339.24 779.108c-75.14 0-136.06-60.913-136.06-136.054" opacity=".2" stroke="#007bff" stroke-width="2"/></svg>