<svg fill="none" height="1903" viewBox="0 0 1600 1903" width="1600" xmlns="http://www.w3.org/2000/svg"><g stroke="#007bff"><path d="m1170.82 529.829v.01l139.61 154.743c33.03 36.612 43.92 88.111 28.53 134.96l-65.02 198.008v.01l-64.21 198.27c-15.19 46.92-54.35 82.1-102.61 92.2l-203.993 42.69h-.013l-203.814 43.53c-48.222 10.3-98.266-6.02-131.146-42.77l-138.969-155.31-.009-.01-139.604-154.74c-33.031-36.61-43.919-88.114-28.535-134.963l65.021-198.007.005-.013 64.209-198.272c15.191-46.912 54.347-82.091 102.611-92.192l203.99-42.694.013-.003 203.814-43.529c48.222-10.299 98.266 6.021 131.15 42.768z" opacity=".04" stroke-width="6.58471"/><path d="m440.5 1209 128.933 142.9c31.484 34.9 80.346 53.99 126.067 43.1" opacity=".2" stroke-width="6.58471"/><g stroke-width="3.29235"><path d="m1329.38 387.374v.005l221.5 245.519c33.43 37.051 44.45 89.167 28.88 136.577l-103.17 314.165v.01l-101.88 314.58c-15.37 47.47-54.99 83.07-103.84 93.3l-323.653 67.73-.007.01-323.376 69.06c-48.8 10.42-99.443-6.09-132.717-43.28l-220.492-246.42-.004-.01-221.5006-245.52c-33.4259-37.05-44.44506-89.17-28.8767-136.575l103.1653-314.165.002-.006 101.876-314.585c15.373-47.473 54.998-83.074 103.84-93.296l323.657-67.738.006-.002 323.377-69.0651c48.803-10.4225 99.443 6.0931 132.713 43.2801z" opacity=".04"/><path d="m123.5 643 100.926-314.393c15.496-48.271 55.756-84.479 105.394-94.787l324.18-67.32" opacity=".2"/></g></g></svg>