<svg fill="none" height="1500" viewBox="0 0 1600 1500" width="1600" xmlns="http://www.w3.org/2000/svg" xmlns:xlink="http://www.w3.org/1999/xlink"><linearGradient id="a" gradientUnits="userSpaceOnUse" x1="899.598" x2="707.816" y1="477.705" y2="1065.85"><stop offset="0" stop-color="#101010"/><stop offset=".662523" stop-color="#101010" stop-opacity="0"/></linearGradient><linearGradient id="b" gradientUnits="userSpaceOnUse" x1="899.598" x2="707.816" y1="477.705" y2="1065.85"><stop offset="0" stop-color="#fff" stop-opacity=".19"/><stop offset=".619295" stop-color="#d8d8d8" stop-opacity="0"/></linearGradient><path d="m1002.35 593.291.01.002 57.86 64.134c28.16 31.217 37.45 75.127 24.33 115.073l-26.94 82.069v.002l-26.62 82.179c-12.95 39.999-46.332 70-87.484 78.61l-84.548 17.7h-.002l-84.474 18.04c-41.116 8.78-83.787-5.13-111.823-36.46l-57.6-64.373-.001-.001-57.864-64.135c-28.164-31.216-37.45-75.127-24.334-115.073l26.948-82.069v-.002l26.611-82.178c12.952-39.999 46.337-69.996 87.489-78.61l84.547-17.698h.002l84.474-18.044c41.117-8.783 83.787 5.131 111.823 36.463z" fill="url(#a)" stroke="url(#b)"/><g stroke="#007bff"><path d="m1175.72 415.394-138.98-155.31c-33.66-37.627-84.908-54.336-134.285-43.789l-203.812 43.535" opacity=".2" stroke-width="6"/><path d="m1171.38 416.705.01.009 139.61 154.739c33.1 36.689 44.01 88.298 28.6 135.246l-65.02 198.01v.011l-64.2 198.27c-15.23 47.02-54.46 82.27-102.83 92.4l-203.99 42.7h-.012l-203.812 43.53c-48.325 10.33-98.476-6.03-131.427-42.85l-138.973-155.31-.008-.01-139.609-154.74c-33.102-36.689-44.015-88.298-28.599-135.247l65.016-198.009.003-.012 64.204-198.274c15.222-47.011 54.46-82.267 102.827-92.391l203.989-42.699.012-.003 203.812-43.535c48.325-10.323 98.476 6.03 131.427 42.855z" opacity=".04" stroke-width="6"/><path d="m1315.59 286.732.01.004 214.28 237.506c33.46 37.088 44.49 89.259 28.91 136.719l-99.79 303.92v.006l-98.55 304.323c-15.39 47.53-55.05 83.17-103.95 93.4l-313.094 65.54h-.006l-312.827 66.82c-48.851 10.44-99.548-6.09-132.858-43.32l-213.307-238.38-.004-.01-214.2827-237.502c-33.4621-37.088-44.4943-89.259-28.9109-136.719l99.7916-303.92.002-.006 98.544-304.327c15.389-47.524 55.054-83.163 103.947-93.398l313.099-65.5377.006-.0012 312.827-66.8217c48.853-10.43477 99.543 6.0965 132.853 43.3219z" opacity=".04" stroke-width="3"/><path d="m1456.87 965.514-98.55 304.326c-15.55 48.04-55.64 84.06-105.06 94.4l-313.102 65.54" opacity=".2" stroke-width="3"/><path d="m439.689 1095.68 128.937 142.89c31.486 34.9 80.348 53.99 126.069 43.1" opacity=".2" stroke-width="6.58471"/></g><circle cx="1199" cy="1145" fill="#151515" r="120" stroke="#17171a" stroke-width="6"/><path d="m1202 1265c-67.93 0-123-55.07-123-123" opacity=".2" stroke="#007bff" stroke-width="6"/><circle cx="254" cy="865" fill="#151515" r="120" stroke="#17171a" stroke-width="6"/><path d="m257 985c-67.931 0-123-55.069-123-123" opacity=".2" stroke="#007bff" stroke-width="6"/></svg>