<svg xmlns:dc="http://purl.org/dc/elements/1.1/" xmlns:cc="http://creativecommons.org/ns#" xmlns:rdf="http://www.w3.org/1999/02/22-rdf-syntax-ns#" xmlns:svg="http://www.w3.org/2000/svg" xmlns="http://www.w3.org/2000/svg" id="svg4" xml:space="preserve" y="0px" x="0px" version="1.1" viewBox="154.05 352.86 715.91 62.28"><metadata id="metadata10"><rdf:RDF><cc:Work rdf:about=""><dc:format>image/svg+xml</dc:format><dc:type rdf:resource="http://purl.org/dc/dcmitype/StillImage"/></cc:Work></rdf:RDF></metadata><defs id="defs8"/><path id="path2" d="m334.78 352.86c-18.96 0-33.12 13.92-34.68 31.08-1.44 17.16 10.319 31.08 29.279 31.08 10.08 0 16.44-4.6793 21.48-8.2793l1.0801-12.121 1.1992-12.84s-25.68 0.001-25.68 0.12109l-1.1992 12.959h8.5195l-0.24023 4.2012c-1.32 0.24-2.6398 0.35937-3.8398 0.35937-11.52 0-13.799-9.7197-13.799-13.68 0-3.7213 1.1222-7.4417 3.2656-10.453 0.045-0.063 0.0967-0.12125 0.14258-0.18359 0.25888-0.35303 0.52714-0.69973 0.81445-1.0312 0.14382-0.16558 0.30229-0.3187 0.45313-0.47852 0.20294-0.21539 0.40155-0.43446 0.61718-0.63867 0.19847-0.18779 0.41399-0.35929 0.62305-0.53711 0.19739-0.16792 0.38888-0.34153 0.5957-0.5 0.19922-0.15274 0.41325-0.29002 0.6211-0.43359 0.23669-0.16332 0.46892-0.33162 0.71679-0.48243 0.20035-0.12213 0.41357-0.22818 0.6211-0.34179 0.27673-0.15111 0.55031-0.30614 0.83984-0.44141 0.18324-0.0859 0.37813-0.15706 0.56641-0.23633 0.338-0.14177 0.67503-0.28272 1.0293-0.40234 0.15878-0.0539 0.3263-0.0953 0.48829-0.14453 0.39167-0.11845 0.78677-0.23376 1.1973-0.32422 0.16617-0.0368 0.34057-0.0598 0.50977-0.0918 0.42249-0.0795 0.84765-0.15425 1.2891-0.20312 0.42854-0.0475 0.86461-0.0809 1.3106-0.0977 0.24424-0.009 0.48879-0.0195 0.73828-0.0195 6.24 0 12.599 3.2413 17.279 6.3613l1.3203-16.441c-4.44-3.6-10.32-5.7598-17.16-5.7598zm49.996 0c-8.88 0-25.92 4.9212-25.92 20.281 0 5.0004 1.4897 8.4051 3.6953 10.875 0.00099 0.002 0.0254 0.0449 0.0254 0.0449h0.0176c6.3813 7.0828 18.701 6.383 18.701 13.32 0 1.92-1.7998 4.3184-6.8398 4.3184-4.92 0-10.681-2.7594-16.561-6.3594l-1.4394 16.561c5.76 2.4 15 3.2402 17.76 3.2402 5.16 0 27.84-1.4406 27.84-20.641 0-4.6264-1.5779-7.9345-3.9023-10.439h0.0625c-1.0341-1.1093-2.2262-2.0478-3.4883-2.8828-0.0153-0.0102-0.0315-0.0191-0.0469-0.0293-0.32586-0.21455-0.65148-0.42691-0.98633-0.62696-0.36173-0.21809-0.72839-0.42623-1.0976-0.6289-0.65428-0.3562-1.3144-0.69271-1.9785-1.0098-0.34732-0.16686-0.69069-0.32038-1.0371-0.47851-0.1729-0.0785-0.34342-0.15767-0.51562-0.23438-2.3696-1.0601-4.6566-1.9619-6.4609-2.9297-0.0603-0.0325-0.1224-0.065-0.18164-0.0976-0.20417-0.11217-0.4015-0.22697-0.5918-0.3418-0.20328-0.12318-0.39612-0.24782-0.58203-0.375-0.15044-0.10246-0.29342-0.20691-0.43164-0.3125-0.20065-0.15394-0.38977-0.31082-0.5625-0.47266-0.11023-0.1028-0.22027-0.20598-0.31836-0.3125-0.0237-0.0258-0.0474-0.0521-0.0703-0.0781-0.29312-0.3314-0.52565-0.68164-0.68945-1.0566-0.0159-0.0365-0.0284-0.0744-0.043-0.11133-0.058-0.14671-0.10409-0.29856-0.14063-0.45312-0.013-0.0552-0.0269-0.10982-0.0371-0.16602-0.0355-0.19531-0.0605-0.39465-0.0605-0.60351 0.00001-2.76 2.8812-4.5586 7.2012-4.5586 5.64 0 14.76 5.3984 14.76 5.3984l1.4395-16.559c-5.16-1.32-8.9995-2.2812-17.52-2.2812zm338.22 0c-17.64 0-33.12 13.92-34.68 31.08-0.11346 0.79417-0.11685 1.4871-0.11719 2.2695-0.00038 0.004-0.002 0.008-0.002 0.0117v0.11914c-0.12 16.08 12.478 28.68 29.398 28.68 17.64 0 33.122-13.92 34.682-31.08 1.44-17.16-11.641-31.08-29.281-31.08zm-563.55 0.86523-5.4004 60.479h17.281l1.9199-21.719h2.2793l0.0566 0.11914h-0.0566l10.32 21.721h20.041l-0.0586-0.1211h0.0586l-11.041-23.158c9.6-2.88 14.641-10.321 14.641-19.561 0-8.76-7.081-17.76-17.041-17.76h-21zm57.223 0-5.416 60.496h17.283l5.418-60.496zm25.127 0-5.3984 60.479h17.279l2.7598-30.719 18.48 30.719h17.279l5.4004-60.479h-17.279l-2.8652 30.545-18.375-30.545zm202.16 0-5.4004 60.479h17.279l2.7598-30.719 18.48 30.719h17.279l5.4004-60.479h-17.279l-2.8652 30.545-18.375-30.545zm63.33 0-1.0801 12.959-4.2012 47.52h43.32l1.1992-12.959h-26.039l0.96093-10.801h17.039l1.1992-12.959h-17.16l0.95508-10.801h25.801l1.1992-12.959h-25.801zm45.203 0-1.2012 12.959h17.281l-4.2012 47.52h17.4l4.1992-47.52h17.16l1.1641-12.561 11.205 60.08h23.881l4.9336-14.547 2.0273 14.547h23.879l21.721-60.479h-18.121l-16.08 48.24-4.0801-29.16h-0.24023v-0.1211h-14.158l-0.0371 0.1211h-0.084l-9.2402 29.879-7.6797-48.959h-52.449zm207.7 0-5.4004 60.479h17.281l1.9199-21.719h2.2793l0.0566 0.11914h-0.0566l10.32 21.721h20.041l-0.0586-0.1211h0.0586l-11.041-23.158c9.6-2.88 14.641-10.321 14.641-19.561 0-8.76-7.081-17.76-17.041-17.76h-21zm57.207 0-5.4004 60.479h17.279l2.5215-27.719 5.6387 12.24 0.7207 1.6797 6.3594 13.799h19.92l-14.76-30.84 20.281-29.639h-19.801l-8.6406 12.719-9.2402 13.561 2.4004-26.279zm-95.602 11.975c7.92 0 13.559 8.2802 12.719 18.24-0.84 9.96-8.039 18.121-15.959 18.121-7.44 0-12.84-7.0812-12.84-16.201v-0.60023c0.12-0.48 0.11914-0.84032 0.11914-1.3203 0.96-9.96 8.0409-18.119 15.961-18.119-0.14026-0.0353-0.27653-0.0602-0.41602-0.0937 0.13918-0.005 0.27635-0.0273 0.41602-0.0273zm-535.12 1.1055c3 0 5.5195 3.1198 5.5195 5.7598s-2.159 7.1992-6.959 7.1992h-10.801l1.2012-12.84h11.039zm600.75 0c3 0 5.5195 3.1198 5.5195 5.7598s-2.159 7.1992-6.959 7.1992h-10.801l1.2012-12.84h11.039z" fill="#ffffff"/></svg>