<svg fill="none" height="980" viewBox="0 0 507 980" width="507" xmlns="http://www.w3.org/2000/svg"><g stroke="#007bff"><path d="m1230.66 463.851.01.011 107.45 178.574c25.42 42.251 26.27 94.882 2.21 137.926l-101.67 181.928v.012l-100.93 182.348c-23.88 43.14-69.03 70.18-118.34 70.87l-208.389 2.92h-.014l-208.376 3.77c-49.301.89-95.303-24.69-120.553-67.05l-106.719-179.012-.007-.011-107.452-178.575c-25.424-42.25-26.268-94.882-2.212-137.926l101.67-181.928.007-.012 100.923-182.343c23.879-43.143 69.037-70.189 118.342-70.879l208.39-2.915h.013l208.377-3.769c49.3-.892 95.3 24.693 120.55 67.047z" opacity=".04" stroke-width="6.58471"/><g stroke-width="3.29235"><path d="m1413.53 354.33v.006l170.49 283.33c25.73 42.757 26.58 96.019 2.24 139.578l-161.32 288.656-160.13 289.31c-24.16 43.66-69.86 71.03-119.76 71.73l-330.633 4.63h-.007l-330.615 5.98c-49.892.9-96.446-24.99-121.998-67.85l-169.323-284.03-.004-.01-170.4866-283.328c-25.72765-42.756-26.58186-96.018-2.2386-139.578l161.3132-288.652.004-.006 160.128-289.3114c24.164-43.6591 69.863-71.0297 119.759-71.7276l330.637-4.62449.006-.00011 330.618-5.98062c49.89-.90253 96.44 24.98852 121.99 67.85032z" opacity=".04"/><path d="m181.023 374.747 159.159-289.3036c24.438-44.4196 70.876-72.2643 121.57-72.8943l331.07-4.11426" opacity=".2"/></g></g></svg>