<svg fill="none" height="474" viewBox="0 0 482 474" width="482" xmlns="http://www.w3.org/2000/svg"><path d="m265.412 2.49181c34.607-7.39115 70.521 4.32087 94.118 30.69259l48.273 53.9507 48.493 53.7519c23.705 26.275 31.519 63.234 20.478 96.855l-22.586 68.781-22.304 68.873c-10.902 33.665-39.002 58.912-73.639 66.161l-70.859 14.83-70.798 15.121c-34.607 7.391-70.521-4.321-94.117-30.692l-48.2731-53.951-48.4938-53.752c-23.70424-26.275-31.5185-63.234-20.4781-96.855l22.5863-68.781 22.3039-68.8726c10.9024-33.6658 39.0025-58.9126 73.6388-66.1617l70.86-14.8302z" fill="#101010"/></svg>