<svg fill="none" height="700" viewBox="0 0 1744 700" width="1744" xmlns="http://www.w3.org/2000/svg"><path d="m1281.99-18.3688.01.0055v.0056l154.35 171.0907c36.52 40.48 48.56 97.421 31.55 149.218l-71.89 218.927v.007.007l-70.99 219.219c-16.8 51.867-60.09 90.764-113.46 101.932l-225.538 47.204-.007.001-.007.002-225.346 48.128c-53.317 11.387-108.648-6.657-145.002-47.286l-153.65-171.723-.005-.005-.005-.006-154.353-171.091c-36.52-40.48-48.559-97.42-31.55-149.218l71.891-218.926.002-.007.003-.007 70.992-219.2197c16.797-51.8672 60.089-90.7633 113.452-101.9313l225.541-47.204.008-.002.007-.001 225.346-48.129c53.321-11.387 108.651 6.657 145.001 47.287z" opacity=".04" stroke="#007bff" stroke-width="2"/><path d="m1457.3-175.874.01.005 244.9 271.4576c36.96 40.9644 49.14 98.5874 31.93 151.0054l-114.07 347.355v.007l-112.64 347.819c-17 52.488-60.81 91.855-114.81 103.155l-357.85 74.89h-.01l-357.537 76.37c-53.955 11.52-109.949-6.74-146.738-47.86l-243.786-272.456-.005-.006-244.9013-271.458c-36.9573-40.964-49.14057-98.587-31.92752-151.005l114.06382-347.355.003-.007 112.638-347.819c16.998-52.488 60.809-91.851 114.811-103.153l357.85-74.894.007-.002 357.542-76.362c53.95-11.523 109.95 6.737 146.74 47.853z" opacity=".04" stroke="#007bff" stroke-width="2"/><path d="m124.03 106.757 111.589-347.606c17.133-53.372 61.646-93.405 116.529-104.802l358.428-74.432" opacity=".2" stroke="#007bff" stroke-width="2"/><g fill="#fffff" stroke="#17171a"><circle cx="279.951" cy="449.076" r="136.344" stroke-width="2"/><circle cx="385.395" cy="39.193" r="87.3643" stroke-width="2"/><circle cx="1331.45" cy="691.961" r="90.7566" stroke-width="2"/><circle cx="1477.05" cy="164.312" r="147.066" stroke-width="2"/></g><path d="m1480.37 311.423c-83.08 0-150.43-67.349-150.43-150.428" opacity=".2" stroke="#007bff" stroke-width="2"/></svg>